<?xml version="1.0" encoding="UTF-8"?>
<!DOCTYPE svg PUBLIC "-//W3C//DTD SVG 1.1//EN" "http://www.w3.org/Graphics/SVG/1.1/DTD/svg11.dtd">
<svg xmlns="http://www.w3.org/2000/svg" version="1.1" width="512px" height="512px" style="shape-rendering:geometricPrecision; text-rendering:geometricPrecision; image-rendering:optimizeQuality; fill-rule:evenodd; clip-rule:evenodd" xmlns:xlink="http://www.w3.org/1999/xlink">
<g><path style="opacity:0.973" fill="#FF0000" d="M 203.5,-0.5 C 238.833,-0.5 274.167,-0.5 309.5,-0.5C 337.575,9.94542 350.909,30.2788 349.5,60.5C 369.533,60.1031 389.533,60.6031 409.5,62C 428.966,67.1341 440.466,79.6341 444,99.5C 444.667,114.167 444.667,128.833 444,143.5C 442.813,147.709 440.313,150.876 436.5,153C 430.258,154.37 423.925,154.87 417.5,154.5C 416.989,164.184 416.323,173.851 415.5,183.5C 428.504,183.333 441.504,183.5 454.5,184C 464.168,188.846 467.001,196.346 463,206.5C 461.235,209.473 458.735,211.64 455.5,213C 441.559,214.429 427.559,214.929 413.5,214.5C 408.623,310.577 402.79,406.577 396,502.5C 394.108,506.058 391.275,508.558 387.5,510C 299.833,510.667 212.167,510.667 124.5,510C 118.808,507.794 115.641,503.627 115,497.5C 109.402,403.168 103.902,308.835 98.5,214.5C 84.4406,214.929 70.4406,214.429 56.5,213C 47.5253,207.848 45.0253,200.348 49,190.5C 51.2866,187.538 54.1199,185.371 57.5,184C 70.4957,183.5 83.4957,183.333 96.5,183.5C 96.067,173.804 95.4004,164.137 94.5,154.5C 88.0749,154.87 81.7416,154.37 75.5,153C 71.839,150.337 69.339,146.837 68,142.5C 67.3333,128.833 67.3333,115.167 68,101.5C 71.2682,81.2267 82.7682,68.0601 102.5,62C 122.467,60.6031 142.467,60.1031 162.5,60.5C 161.544,30.0177 175.211,9.68435 203.5,-0.5 Z M 217.5,28.5 C 245.204,28.0523 272.87,28.5523 300.5,30C 314.539,35.224 320.539,45.3907 318.5,60.5C 276.833,60.5 235.167,60.5 193.5,60.5C 192.143,42.5534 200.143,31.8867 217.5,28.5 Z M 111.5,91.5 C 207.834,91.3333 304.167,91.5 400.5,92C 405.737,92.9002 409.571,95.7336 412,100.5C 413.396,108.08 413.896,115.747 413.5,123.5C 308.5,123.5 203.5,123.5 98.5,123.5C 98.1439,115.762 98.6439,108.095 100,100.5C 102.732,95.9074 106.565,92.9074 111.5,91.5 Z M 125.5,154.5 C 212.5,154.5 299.5,154.5 386.5,154.5C 379.932,263.151 373.599,371.818 367.5,480.5C 293.262,480.832 219.096,480.498 145,479.5C 138.752,371.121 132.252,262.788 125.5,154.5 Z"/></g>
<g><path style="opacity:0.964" fill="#FF0000" d="M 180.5,184.5 C 196.682,183.519 203.848,191.186 202,207.5C 205.579,284.491 208.579,361.491 211,438.5C 208.827,446.005 203.827,449.671 196,449.5C 187.727,449.557 182.727,445.557 181,437.5C 177.514,359.165 174.014,280.832 170.5,202.5C 170.074,194.293 173.407,188.293 180.5,184.5 Z"/></g>
<g><path style="opacity:0.964" fill="#FF0000" d="M 250.5,184.5 C 259.974,182.654 266.807,185.988 271,194.5C 271.667,275.833 271.667,357.167 271,438.5C 268.827,446.005 263.827,449.671 256,449.5C 248.173,449.671 243.173,446.005 241,438.5C 240.333,357.5 240.333,276.5 241,195.5C 242.599,190.406 245.766,186.739 250.5,184.5 Z"/></g>
<g><path style="opacity:0.964" fill="#FF0000" d="M 320.5,184.5 C 335.808,183.142 342.808,190.142 341.5,205.5C 338.246,283.513 334.746,361.513 331,439.5C 326.81,448.177 319.976,451.343 310.5,449C 303.19,445.506 299.857,439.673 300.5,431.5C 304.043,352.837 307.543,274.17 311,195.5C 312.599,190.406 315.766,186.739 320.5,184.5 Z"/></g>
</svg>
